<?xml version="1.0" encoding="UTF-8"?>
<svg version="1.1" xmlns="http://www.w3.org/2000/svg" width="473" height="527">
<path d="M0 0 C4.70015329 0.00259281 9.40030498 0.00016747 14.10045838 -0.00138617 C21.97918009 -0.00318767 29.85789231 -0.00085481 37.73661256 0.00395441 C46.75827828 0.00939879 55.77992139 0.00762482 64.80158657 0.00212801 C72.6463588 -0.00245462 80.49112436 -0.00302899 88.33589751 -0.00043333 C92.97812658 0.00110076 97.62034514 0.00140435 102.26257348 -0.00196981 C119.17740266 -0.01247904 136.0859621 0.01070351 152.99393678 0.53715754 C154.14882442 0.57011864 155.30371207 0.60307974 156.49359632 0.63703966 C178.33750492 1.43276608 195.09544292 9.93278365 210.22318482 25.55229425 C228.29610642 45.39648225 229.04723667 71.64542096 228.96293092 97.16850519 C228.9670095 99.28192651 228.9723585 101.39534568 228.97886109 103.50876093 C228.99238436 109.18002006 228.98729978 114.85111308 228.97772384 120.52237463 C228.9700526 126.49477461 228.97719296 132.4671617 228.98188233 138.43956232 C228.98731668 148.45877332 228.9802078 158.47791763 228.96586061 168.49711847 C228.94952076 180.04035723 228.95484176 191.58343708 228.97133982 203.12667203 C228.98499981 213.08737737 228.98685289 223.04803518 228.97902381 233.00874686 C228.97437433 238.93628097 228.97364711 244.86374062 228.98363328 250.79126978 C228.99236738 256.3631023 228.98616458 261.93473184 228.96895051 267.50654268 C228.9650206 269.53768882 228.96605883 271.56885237 228.9727385 273.59999132 C229.03331573 293.90889009 227.4934683 315.35135368 214.57474732 332.1343255 C213.91474732 332.1343255 213.25474732 332.1343255 212.57474732 332.1343255 C212.3040442 332.72084894 212.03334107 333.30737238 211.75443482 333.91166925 C209.21644894 338.69350358 205.22078548 343.31351662 200.57474732 346.1343255 C199.91474732 346.1343255 199.25474732 346.1343255 198.57474732 346.1343255 C198.57474732 346.7943255 198.57474732 347.4543255 198.57474732 348.1343255 C190.9444408 353.71613532 182.64873902 356.79943252 173.57474732 359.1343255 C172.36909088 359.46860119 171.16343444 359.80287687 169.92124295 360.14728212 C165.55333946 361.23307552 161.31421927 361.57252504 156.82769227 361.75123835 C156.0052797 361.78885401 155.18286713 361.82646967 154.33553296 361.8652252 C145.0677286 362.25442475 135.80198179 362.27493239 126.52762818 362.26372004 C124.60331653 362.26507955 122.67900514 362.26686254 120.75469422 362.26903009 C115.58947963 362.27353879 110.42428529 362.27184232 105.2590704 362.26865101 C99.81697804 362.26609348 94.37488725 362.26847426 88.93279481 362.27003717 C79.80034031 362.2718489 70.66789394 362.26947867 61.53544068 362.2646966 C51.02159464 362.25925428 40.50776799 362.26102046 29.99392241 362.266523 C20.91732293 362.2710807 11.84072924 362.27169178 2.76412898 362.26908433 C-2.63527021 362.26753633 -8.03466032 362.26728688 -13.4340589 362.27062082 C-18.51251599 362.27353843 -23.59094838 362.27145342 -28.66940284 362.26572657 C-30.51791126 362.26441969 -32.36642181 362.26475715 -34.21492934 362.26698923 C-43.26373192 362.27689694 -52.28497999 362.17281368 -61.32245421 361.68971491 C-62.05785904 361.65111011 -62.79326387 361.6125053 -63.55095369 361.57273066 C-69.03404977 361.24533461 -74.16344364 360.43198613 -79.42525268 358.8843255 C-80.21069457 358.66687677 -80.99613647 358.44942804 -81.80537963 358.22538996 C-87.69248996 356.52550894 -93.1648421 354.3122085 -98.42525268 351.1343255 C-98.42525268 350.4743255 -98.42525268 349.8143255 -98.42525268 349.1343255 C-99.44619018 348.8249505 -99.44619018 348.8249505 -100.48775268 348.5093255 C-104.34164643 346.70537524 -107.50313032 344.233291 -110.42525268 341.1343255 C-110.42525268 340.4743255 -110.42525268 339.8143255 -110.42525268 339.1343255 C-111.08525268 339.1343255 -111.74525268 339.1343255 -112.42525268 339.1343255 C-112.42525268 338.4743255 -112.42525268 337.8143255 -112.42525268 337.1343255 C-113.41525268 336.8043255 -114.40525268 336.4743255 -115.42525268 336.1343255 C-117.00809564 334.0564736 -118.41708562 332.02665585 -119.80025268 329.8218255 C-120.3968872 328.87992365 -120.3968872 328.87992365 -121.00557494 327.91899347 C-127.59784771 317.2514242 -131.50776304 306.14432495 -132.05147338 293.6162591 C-132.09262204 292.78332457 -132.1337707 291.95039003 -132.1761663 291.09221506 C-132.30884158 288.28112094 -132.42540999 285.46970931 -132.53853393 282.657763 C-132.58052728 281.65809881 -132.62252063 280.65843462 -132.6657865 279.62847757 C-133.88558578 249.743241 -133.69135908 219.82916562 -133.6258496 189.9253037 C-133.61249212 183.52976778 -133.61015012 177.13426615 -133.61079878 170.73871815 C-133.61148502 162.89982341 -133.60449916 155.06094799 -133.59535217 147.22205925 C-133.59327108 145.03799437 -133.59251819 142.85393281 -133.59211326 140.66986704 C-133.58518466 121.25453303 -133.21745524 101.8759525 -132.54106116 82.47297525 C-132.4142645 78.81754659 -132.29919831 75.16184256 -132.18877482 71.50588655 C-131.39844004 51.39917076 -123.77848419 34.23545025 -109.31978393 20.0718255 C-107.40341106 18.35190866 -105.44865368 16.72623519 -103.42525268 15.1343255 C-102.87482299 14.68573175 -102.3243933 14.237138 -101.75728393 13.7749505 C-88.17725525 3.32381205 -71.95185924 0.94929575 -55.35371947 0.53325129 C-54.66842898 0.51416216 -53.98313848 0.49507304 -53.27708161 0.47540545 C-35.52111721 -0.01828624 -17.76142277 -0.01293795 0 0 Z " fill="#2B8555" transform="translate(211.42525267601013,109.86567449569702)"/>
<path d="M0 0 C1.27018478 -0.01409912 2.54036957 -0.02819824 3.8490448 -0.04272461 C5.24917961 -0.03300392 6.64931088 -0.02276313 8.04943848 -0.01205444 C9.52974014 -0.01883254 11.01003338 -0.02773676 12.49031067 -0.03860474 C16.50489573 -0.06138241 20.51883773 -0.05256849 24.53343391 -0.03670931 C28.73649949 -0.0240422 32.93951036 -0.03579266 37.14257812 -0.04364014 C44.20066199 -0.05273437 51.25848419 -0.04075485 58.31652832 -0.01693726 C66.47432917 0.01027376 74.6315052 0.00145943 82.7892909 -0.02606928 C89.79583566 -0.04876592 96.80219243 -0.05195778 103.80876207 -0.03887594 C107.99241915 -0.03108441 112.17578262 -0.03003142 116.35942078 -0.04655838 C120.29295761 -0.06101218 124.22568966 -0.0509659 128.15913963 -0.0220871 C129.60188143 -0.01548098 131.04469106 -0.01736601 132.48740578 -0.02840042 C134.45813183 -0.04208254 136.42900606 -0.02187435 138.3996582 0 C139.50208107 0.00188513 140.60450394 0.00377026 141.74033356 0.00571251 C145.66851449 0.84086627 147.18808488 2.57552451 149.6998291 5.63491821 C150.31506348 8.06680298 150.31506348 8.06680298 150.2935791 10.57632446 C150.29100098 11.48962524 150.28842285 12.40292603 150.2857666 13.34390259 C150.25740723 14.28556274 150.22904785 15.2272229 150.1998291 16.19741821 C150.20240723 17.14294556 150.20498535 18.0884729 150.2076416 19.06265259 C150.09506811 27.02722682 150.09506811 27.02722682 146.6998291 30.63491821 C143.45826669 31.71543902 141.08913976 31.77149016 137.6781311 31.78881836 C136.4191098 31.79741882 135.1600885 31.80601929 133.86291504 31.81488037 C132.46496623 31.81931544 131.06701699 31.82361381 129.66906738 31.82778931 C128.19892178 31.83569164 126.72877811 31.84396067 125.25863647 31.85256958 C120.42915698 31.87876869 115.59966889 31.89409244 110.7701416 31.90835571 C109.107624 31.91371576 107.44510645 31.91909327 105.78258896 31.92448807 C98.86832747 31.94611131 91.9540683 31.96484913 85.03978157 31.97611046 C75.12897647 31.99235863 65.21856283 32.02556349 55.30790532 32.08251131 C48.3396714 32.12118818 41.3715423 32.1407403 34.40320385 32.14603102 C30.24068196 32.14968684 26.0785778 32.16173248 21.91617203 32.19413376 C18.00082241 32.22417614 14.08614413 32.23054038 10.17070389 32.21875 C8.73437499 32.21852896 7.29801528 32.22685967 5.86179352 32.24440384 C3.89982461 32.26706456 1.93755171 32.25582562 -0.02450562 32.24291992 C-1.12215178 32.24623007 -2.21979794 32.24954021 -3.3507061 32.25295067 C-7.2771332 31.430205 -8.7898232 29.68841427 -11.3001709 26.63491821 C-11.94714355 24.21890259 -11.94714355 24.21890259 -11.9642334 21.72866821 C-11.97067871 20.81987915 -11.97712402 19.91109009 -11.98376465 18.97476196 C-11.96442871 18.03761353 -11.94509277 17.10046509 -11.9251709 16.13491821 C-11.94450684 15.19776978 -11.96384277 14.26062134 -11.98376465 13.29507446 C-11.97731934 12.3862854 -11.97087402 11.47749634 -11.9642334 10.54116821 C-11.95577393 9.3085022 -11.95577393 9.3085022 -11.94714355 8.05093384 C-10.30852704 1.93178325 -5.88796145 0.01006833 0 0 Z " fill="#E3E9E9" transform="translate(190.3001708984375,237.36508178710938)"/>
<path d="M0 0 C1.26177063 -0.00983414 2.52354126 -0.01966827 3.82354736 -0.02980042 C5.21423611 -0.02042923 6.60492216 -0.01064995 7.99560547 -0.00050354 C9.46604937 -0.00428822 10.9364897 -0.00978949 12.40692139 -0.01687622 C16.39458901 -0.03082895 20.38182507 -0.01966259 24.36946869 -0.00316501 C28.54449292 0.01069417 32.71949231 0.00422443 36.89453125 0.0007019 C43.90550687 -0.00199954 50.91631123 0.01146963 57.92724609 0.03465271 C66.03038792 0.06126209 74.13324341 0.06300933 82.23641396 0.05126435 C90.03457931 0.04048135 97.83264119 0.04667772 105.63079834 0.06081963 C108.94808399 0.06657491 112.26529381 0.06650035 115.58258057 0.06175423 C119.48967959 0.05697832 123.39646547 0.06711129 127.30350494 0.08870888 C128.73657424 0.0942686 130.16967368 0.0947495 131.60274506 0.08975601 C133.56036563 0.0837907 135.51801659 0.09815889 137.47558594 0.11352539 C139.11815872 0.11717023 139.11815872 0.11717023 140.79391479 0.12088871 C144.14349611 0.55361784 146.03436848 1.50795927 148.73779297 3.50120544 C150.61410618 7.25383187 150.0089932 11.74622894 150.05029297 15.87620544 C150.07929688 16.83526794 150.10830078 17.79433044 150.13818359 18.78245544 C150.20228653 25.8633648 150.20228653 25.8633648 147.84326172 29.10276794 C144.25224412 31.48789652 142.15122113 31.6332041 137.83634949 31.65510559 C135.94987953 31.66800629 135.94987953 31.66800629 134.02529907 31.6811676 C132.62371867 31.68560296 131.22213784 31.68990131 129.82055664 31.69407654 C128.35055853 31.70197656 126.88056236 31.71024545 125.41056824 31.71885681 C120.5756516 31.74508731 115.74072626 31.76038492 110.90576172 31.77464294 C109.24231778 31.7800021 107.57887389 31.78537961 105.91543007 31.7907753 C98.99691996 31.81240505 92.0784122 31.83114249 85.15987682 31.84239769 C75.23947749 31.85864172 65.31946955 31.8918291 55.39921778 31.94879854 C48.42675777 31.9874767 41.45440254 32.00702781 34.48183805 32.01231825 C30.31594798 32.01597452 26.15047524 32.02802439 21.98470116 32.06042099 C18.06526112 32.09046485 14.14649171 32.09682707 10.22696114 32.08503723 C8.78902056 32.08481619 7.3510492 32.09314709 5.91321564 32.11069107 C3.94900353 32.13335178 1.9844878 32.12211286 0.02018738 32.10920715 C-1.0787576 32.1125173 -2.17770258 32.11582745 -3.30994892 32.1192379 C-7.24087433 31.296329 -8.75280488 29.56201116 -11.26220703 26.50120544 C-11.90917969 23.9775238 -11.90917969 23.9775238 -11.92626953 21.34104919 C-11.93271484 20.38263123 -11.93916016 19.42421326 -11.94580078 18.43675232 C-11.92646484 17.44739685 -11.90712891 16.45804138 -11.88720703 15.43870544 C-11.90654297 14.44548279 -11.92587891 13.45226013 -11.94580078 12.42893982 C-11.93935547 11.47181091 -11.93291016 10.51468201 -11.92626953 9.52854919 C-11.92062988 8.6596405 -11.91499023 7.79073181 -11.90917969 6.89549255 C-10.33978487 1.08754727 -5.39357638 0.00103081 0 0 Z " fill="#E3E9E9" transform="translate(190.26220703125,292.49879455566406)"/>
<path d="M0 0 C1.43745323 -0.01051392 1.43745323 -0.01051392 2.90394592 -0.02124023 C6.06711933 -0.03882475 9.22939584 -0.02719551 12.39257812 -0.01367188 C14.59306001 -0.01636665 16.79354074 -0.02024894 18.99401855 -0.02526855 C23.60403794 -0.03116424 28.21374715 -0.02259811 32.82373047 -0.00390625 C38.73215169 0.01888301 44.63984611 0.00576035 50.54824066 -0.01819611 C55.09158807 -0.03265198 59.63476324 -0.02804898 64.17811584 -0.01768494 C66.35661403 -0.01501709 68.53512787 -0.01828944 70.71360779 -0.02760315 C73.75871182 -0.03776495 76.80263979 -0.02227206 79.84765625 0 C80.74754776 -0.00809692 81.64743927 -0.01619385 82.57460022 -0.02453613 C86.71027997 0.03148696 88.88744866 0.18763676 92.4828949 2.39929199 C94.83612302 4.9675465 95.05558756 6.13597107 95.05273438 9.58007812 C95.05466797 10.54171875 95.05660156 11.50335938 95.05859375 12.49414062 C95.03474609 13.491875 95.01089844 14.48960937 94.98632812 15.51757812 C94.99728516 16.5153125 95.00824219 17.51304687 95.01953125 18.54101562 C94.94713428 25.74210121 94.94713428 25.74210121 92.99436951 28.63586426 C89.0921807 31.49238423 85.48281313 31.07653753 80.76171875 31.03515625 C79.78244919 31.04216553 78.80317963 31.0491748 77.79423523 31.05639648 C74.55589476 31.07400761 71.31842754 31.06234228 68.08007812 31.04882812 C65.83093091 31.05152213 63.58178483 31.05540379 61.3326416 31.0604248 C56.61829543 31.0663241 51.90425236 31.05774274 47.18994141 31.0390625 C41.14351527 31.01627306 35.0977993 31.02939378 29.05139923 31.05335236 C24.40686684 31.06779848 19.76250314 31.06320971 15.1179657 31.05284119 C12.88840145 31.05017064 10.65882195 31.05345514 8.42927551 31.0627594 C5.31441613 31.07290514 2.2007108 31.05745073 -0.9140625 31.03515625 C-1.83782181 31.04325317 -2.76158112 31.0513501 -3.71333313 31.05969238 C-9.94869998 30.97690649 -9.94869998 30.97690649 -13.14671326 28.63586426 C-15.84546549 24.63663731 -15.1899836 20.18996327 -15.13867188 15.51757812 C-15.17444336 14.02097656 -15.17444336 14.02097656 -15.2109375 12.49414062 C-15.20900391 11.5325 -15.20707031 10.57085937 -15.20507812 9.58007812 C-15.20580322 8.70480469 -15.20652832 7.82953125 -15.20727539 6.92773438 C-13.2764112 -0.44615007 -6.23500714 -0.05610052 0 0 Z " fill="#E9ECED" transform="translate(193.576171875,347.482421875)"/>
<path d="M0 0 C4.70015329 0.00259281 9.40030498 0.00016747 14.10045838 -0.00138617 C21.97918009 -0.00318767 29.85789231 -0.00085481 37.73661256 0.00395441 C46.75827828 0.00939879 55.77992139 0.00762482 64.80158657 0.00212801 C72.6463588 -0.00245462 80.49112436 -0.00302899 88.33589751 -0.00043333 C92.97812658 0.00110076 97.62034514 0.00140435 102.26257348 -0.00196981 C119.16089764 -0.0124326 136.05502525 0.00921164 152.94706178 0.51372004 C154.09566525 0.54353905 155.24426871 0.57335806 156.42767835 0.60408068 C165.20403469 0.91459647 173.24846599 2.31519088 181.57474732 5.1343255 C181.24474732 5.7943255 180.91474732 6.4543255 180.57474732 7.1343255 C179.41974732 6.9693255 178.26474732 6.8043255 177.07474732 6.6343255 C174.16031126 6.25843534 171.3855016 6.11181331 168.44974732 6.1968255 C164.57474732 6.1343255 164.57474732 6.1343255 161.83882546 5.16885233 C158.035672 3.96346934 154.42790283 3.68316272 150.47449708 3.51939631 C149.29845212 3.4630536 149.29845212 3.4630536 148.09864867 3.40557265 C138.79485133 2.99750914 129.48977732 2.97838907 120.17875123 2.97319269 C118.20544303 2.96854983 116.2321357 2.96352327 114.25882936 2.95814753 C108.95760602 2.94517654 103.65639524 2.93861084 98.35515857 2.93413687 C95.03458866 2.93118564 91.71402205 2.92707756 88.39345384 2.92263269 C77.97746785 2.90900811 67.56148956 2.89931276 57.1454953 2.8954308 C45.16721897 2.89093986 33.18905617 2.87332284 21.21081436 2.84443021 C11.91267396 2.82278711 2.61456548 2.81272538 -6.68359983 2.81138968 C-12.22147472 2.81034504 -17.75924215 2.80450784 -23.29709029 2.78657007 C-28.4995004 2.77004016 -33.70172268 2.7679577 -38.90414977 2.77670908 C-40.80517242 2.77747638 -42.70620541 2.77317751 -44.60720229 2.76325083 C-53.69488581 2.71860055 -62.15124983 2.7273075 -70.92848182 5.42346811 C-75.01914908 6.58812487 -79.19417342 6.86286245 -83.42525268 7.1343255 C-83.42525268 7.7943255 -83.42525268 8.4543255 -83.42525268 9.1343255 C-84.31212768 9.4230755 -85.19900268 9.7118255 -86.11275268 10.0093255 C-92.38138677 12.09495544 -92.38138677 12.09495544 -97.42525268 16.1343255 C-102.81378771 20.03241468 -102.81378771 20.03241468 -105.67525268 20.5093255 C-106.25275268 20.7155755 -106.83025268 20.9218255 -107.42525268 21.1343255 C-108.54205974 23.98412189 -108.54205974 23.98412189 -109.42525268 27.1343255 C-110.92525268 29.5093255 -110.92525268 29.5093255 -112.42525268 31.1343255 C-113.08525268 31.1343255 -113.74525268 31.1343255 -114.42525268 31.1343255 C-114.75525268 32.1243255 -115.08525268 33.1143255 -115.42525268 34.1343255 C-116.08525268 34.1343255 -116.74525268 34.1343255 -117.42525268 34.1343255 C-117.09525268 35.1243255 -116.76525268 36.1143255 -116.42525268 37.1343255 C-117.53462768 39.1499505 -117.53462768 39.1499505 -119.17525268 41.3843255 C-123.66120024 47.8582452 -125.72974704 53.12744301 -126.01900268 60.99760675 C-126.37691436 63.76109789 -126.97066781 65.61174523 -127.92836547 68.18165827 C-130.32329389 76.09829226 -129.82682196 84.32671445 -129.78169799 92.51372004 C-129.78248997 94.36785717 -129.78459064 96.22199412 -129.78789306 98.07612848 C-129.79300908 103.09359658 -129.77952069 108.11085806 -129.76236606 113.12829304 C-129.74724863 118.40746927 -129.74850188 123.6866437 -129.74770141 128.96583796 C-129.7440123 137.84446429 -129.72907461 146.72301317 -129.70650268 155.60161066 C-129.67776317 166.92782375 -129.66728865 178.25397413 -129.66282058 189.58021975 C-129.65880688 199.38642402 -129.64630208 209.19261516 -129.63247371 218.99880981 C-129.62841414 222.11415276 -129.62546845 225.22949526 -129.62267852 228.34483957 C-131.90899611 272.99768013 -131.90899611 272.99768013 -123.22994018 315.93510675 C-122.42525268 318.1343255 -122.42525268 318.1343255 -122.42525268 322.1343255 C-121.76525268 322.1343255 -121.10525268 322.1343255 -120.42525268 322.1343255 C-117.66529913 324.98330981 -116.10803653 327.69332132 -114.80025268 331.3843255 C-113.89236723 335.1865187 -113.89236723 335.1865187 -111.42525268 336.1343255 C-111.42525268 336.7943255 -111.42525268 337.4543255 -111.42525268 338.1343255 C-110.85290893 338.23873957 -110.28056518 338.34315363 -109.69087768 338.45073175 C-107.055395 339.24592049 -105.3649396 340.41334041 -103.17525268 342.0718255 C-102.46884643 342.59647394 -101.76244018 343.12112238 -101.03462768 343.66166925 C-100.50353393 344.14764582 -99.97244018 344.63362238 -99.42525268 345.1343255 C-99.42525268 345.7943255 -99.42525268 346.4543255 -99.42525268 347.1343255 C-98.28056518 347.041513 -98.28056518 347.041513 -97.11275268 346.9468255 C-94.42525268 347.1343255 -94.42525268 347.1343255 -92.73775268 348.5718255 C-92.30462768 349.0874505 -91.87150268 349.6030755 -91.42525268 350.1343255 C-90.76525268 350.4643255 -90.10525268 350.7943255 -89.42525268 351.1343255 C-89.42525268 351.7943255 -89.42525268 352.4543255 -89.42525268 353.1343255 C-87.77525268 353.1343255 -86.12525268 353.1343255 -84.42525268 353.1343255 C-83.93025268 354.6193255 -83.93025268 354.6193255 -83.42525268 356.1343255 C-81.41016909 356.86756347 -81.41016909 356.86756347 -79.42525268 357.1343255 C-83.35032633 358.44268339 -84.62873878 357.46036065 -88.36275268 355.8218255 C-89.92316283 355.14700129 -89.92316283 355.14700129 -91.51509643 354.45854425 C-93.84749365 353.39722525 -96.14597887 352.30416965 -98.42525268 351.1343255 C-98.42525268 350.4743255 -98.42525268 349.8143255 -98.42525268 349.1343255 C-99.44619018 348.8249505 -99.44619018 348.8249505 -100.48775268 348.5093255 C-104.34164643 346.70537524 -107.50313032 344.233291 -110.42525268 341.1343255 C-110.42525268 340.4743255 -110.42525268 339.8143255 -110.42525268 339.1343255 C-111.08525268 339.1343255 -111.74525268 339.1343255 -112.42525268 339.1343255 C-112.42525268 338.4743255 -112.42525268 337.8143255 -112.42525268 337.1343255 C-113.41525268 336.8043255 -114.40525268 336.4743255 -115.42525268 336.1343255 C-117.00809564 334.0564736 -118.41708562 332.02665585 -119.80025268 329.8218255 C-120.3968872 328.87992365 -120.3968872 328.87992365 -121.00557494 327.91899347 C-127.59784771 317.2514242 -131.50776304 306.14432495 -132.05147338 293.6162591 C-132.09262204 292.78332457 -132.1337707 291.95039003 -132.1761663 291.09221506 C-132.30884158 288.28112094 -132.42540999 285.46970931 -132.53853393 282.657763 C-132.58052728 281.65809881 -132.62252063 280.65843462 -132.6657865 279.62847757 C-133.88558578 249.743241 -133.69135908 219.82916562 -133.6258496 189.9253037 C-133.61249212 183.52976778 -133.61015012 177.13426615 -133.61079878 170.73871815 C-133.61148502 162.89982341 -133.60449916 155.06094799 -133.59535217 147.22205925 C-133.59327108 145.03799437 -133.59251819 142.85393281 -133.59211326 140.66986704 C-133.58518466 121.25453303 -133.21745524 101.8759525 -132.54106116 82.47297525 C-132.4142645 78.81754659 -132.29919831 75.16184256 -132.18877482 71.50588655 C-131.39844004 51.39917076 -123.77848419 34.23545025 -109.31978393 20.0718255 C-107.40341106 18.35190866 -105.44865368 16.72623519 -103.42525268 15.1343255 C-102.87482299 14.68573175 -102.3243933 14.237138 -101.75728393 13.7749505 C-88.17725525 3.32381205 -71.95185924 0.94929575 -55.35371947 0.53325129 C-54.66842898 0.51416216 -53.98313848 0.49507304 -53.27708161 0.47540545 C-35.52111721 -0.01828624 -17.76142277 -0.01293795 0 0 Z " fill="#396C56" transform="translate(211.42525267601013,109.86567449569702)"/>
<path d="M0 0 C2.30491113 3.45736669 2.66633594 6.3108853 3.1098175 10.3288269 C3.19409919 11.07742222 3.27838088 11.82601753 3.36521655 12.59729755 C4.35560139 22.29551841 4.27181418 32.00104198 4.24291992 41.73876953 C4.24399546 43.86782387 4.24593815 45.99687793 4.24867249 48.12593079 C4.25347771 53.85457976 4.24592172 59.58314962 4.23571944 65.31178904 C4.22687601 71.32625633 4.22869754 77.34072162 4.2290802 83.35519409 C4.22814694 93.44025991 4.21950514 103.52529542 4.20581055 113.61035156 C4.19004599 125.26272246 4.18481411 136.91506032 4.1855461 148.56744111 C4.18622158 161.00085737 4.17928537 173.43426096 4.1700995 185.8676734 C4.16797046 189.44244402 4.16725866 193.01721259 4.16686058 196.5919838 C4.16585557 202.20470829 4.15974596 207.81740511 4.14969444 213.43012047 C4.14677668 215.48804111 4.14554261 217.54596493 4.14612198 219.60388756 C4.14661374 222.4141058 4.14094667 225.22424687 4.13371277 228.03445435 C4.13526137 228.8468042 4.13680997 229.65915406 4.1384055 230.49612057 C4.11886026 235.09898349 3.75954123 239.45851729 3 244 C2.67 244 2.34 244 2 244 C1.93941406 243.01257813 1.87882812 242.02515625 1.81640625 241.0078125 C1.73261719 239.72648438 1.64882813 238.44515625 1.5625 237.125 C1.48128906 235.84882813 1.40007812 234.57265625 1.31640625 233.2578125 C1.20793973 230.11699848 1.20793973 230.11699848 0 228 C0.66 228 1.32 228 2 228 C1.9285376 226.74701614 1.8570752 225.49403229 1.78344727 224.20307922 C0.77284332 204.66583467 0.88605419 185.13829601 0.93153763 165.58155608 C0.94165951 160.63537361 0.94505612 155.68918682 0.94897461 150.74299622 C0.95997438 138.22448709 0.97955253 125.70599671 1 113.1875 C1.02210318 99.61994149 1.04262535 86.05239027 1.05341816 72.48481733 C1.05837211 66.62211492 1.06818608 60.75944769 1.08184814 54.89675939 C1.08933981 51.25030797 1.09262943 47.60386127 1.0948143 43.95740318 C1.09667552 42.27687798 1.10025463 40.59635359 1.10574722 38.91583633 C1.13089838 30.96679091 1.10264525 23.09080051 0.22485352 15.17744923 C-0.09790618 12.0518906 -0.09625774 8.95197025 -0.0625 5.8125 C-0.05347656 4.70519531 -0.04445313 3.59789062 -0.03515625 2.45703125 C-0.01775391 1.24080078 -0.01775391 1.24080078 0 0 Z " fill="#3C7C5D" transform="translate(436,165)"/>
<path d="M0 0 C0 3.51716303 -0.82445585 4.37121748 -3 7 C-3.66 6.67 -4.32 6.34 -5 6 C-2.25 1.125 -2.25 1.125 0 0 Z M-7 7 C-6.34 7 -5.68 7 -5 7 C-5.33 7.99 -5.66 8.98 -6 10 C-6.66 10 -7.32 10 -8 10 C-7.67 10.99 -7.34 11.98 -7 13 C-8.109375 15.015625 -8.109375 15.015625 -9.75 17.25 C-14.35225004 23.89176224 -16.16839287 29.20022342 -16.6875 37.203125 C-16.987766 39.89050568 -17.59099502 42.02777456 -18.5 44.5625 C-19.9144417 48.95060691 -20.35071688 53.18367796 -20.5625 57.76171875 C-20.60177612 58.54274963 -20.64105225 59.32378052 -20.68151855 60.128479 C-21.19640855 71.1621804 -21.33433841 82.20676486 -21.5 93.25 C-21.54027841 95.76985685 -21.58056178 98.28971362 -21.62084961 100.80957031 C-22.25202135 141.20386532 -22.60131104 181.60289513 -23 222 C-23.33 222 -23.66 222 -24 222 C-24.0235991 205.09850594 -24.04110935 188.19701718 -24.05181217 171.29551029 C-24.05691879 163.44382736 -24.0638507 155.59215478 -24.07543945 147.74047852 C-24.08556203 140.87876436 -24.09189409 134.01705773 -24.09408849 127.15533632 C-24.09536656 123.53866322 -24.09825928 119.92201159 -24.10573006 116.30534554 C-24.14409672 96.96686354 -23.79646649 77.66932372 -23.11697197 58.34379387 C-22.98901742 54.6860489 -22.87336924 51.02802271 -22.76260471 47.36972141 C-22.27611599 34.85381019 -19.36723112 22.85560716 -13 12 C-12.01 12 -11.02 12 -10 12 C-9.690625 11.360625 -9.38125 10.72125 -9.0625 10.0625 C-8 8 -8 8 -7 7 Z " fill="#35594C" transform="translate(102,134)"/>
<path d="M0 0 C12.82158119 -0.0926531 25.64308283 -0.16374142 38.46493053 -0.20724869 C44.41855374 -0.22812932 50.37194801 -0.25645618 56.32543945 -0.30175781 C62.07018092 -0.34519779 67.81470208 -0.36913352 73.55959511 -0.37950897 C75.75208314 -0.3869036 77.94455903 -0.40134345 80.13695335 -0.42292023 C83.2063954 -0.45192902 86.27492549 -0.45595698 89.34448242 -0.45410156 C90.70610252 -0.47567322 90.70610252 -0.47567322 92.0952301 -0.49768066 C96.2545706 -0.47044947 98.44562004 -0.33858801 102.06799316 1.8737793 C104.45726834 4.50323497 104.59032098 5.69295844 104.48828125 9.203125 C104.47216797 10.1828125 104.45605469 11.1625 104.43945312 12.171875 C104.39755859 13.18765625 104.35566406 14.2034375 104.3125 15.25 C104.28994141 16.28125 104.26738281 17.3125 104.24414062 18.375 C104.18527163 20.91814065 104.10310065 23.45833113 104 26 C101.58272776 23.8551695 101.04012338 23.36636466 100.671875 20.00390625 C100.69765625 18.86824219 100.7234375 17.73257812 100.75 16.5625 C100.76546875 15.42941406 100.7809375 14.29632813 100.796875 13.12890625 C100.96231663 10.5804689 101.25997979 8.42893731 102 6 C96.46106165 3.2138413 92.18927314 2.57718021 86.03540039 2.65942383 C84.73176544 2.65876671 84.73176544 2.65876671 83.40179443 2.65809631 C80.55018063 2.66017407 77.69916641 2.68345704 74.84765625 2.70703125 C72.86226218 2.71263081 70.87686394 2.71689921 68.89146423 2.71989441 C63.68163484 2.73131481 58.47205882 2.76075785 53.2623291 2.79400635 C47.93989488 2.82476776 42.61741948 2.83841271 37.29492188 2.85351562 C26.86317031 2.88563024 16.43160628 2.93679262 6 3 C6 2.34 6 1.68 6 1 C4.02 1 2.04 1 0 1 C0 0.67 0 0.34 0 0 Z " fill="#BBDFCE" transform="translate(184,348)"/>
<path d="M0 0 C0.73092393 0.37341711 1.46184786 0.74683422 2.214921 1.131567 C14.05770493 3.64035541 26.15316364 3.43788995 38.19514561 3.45041466 C40.26630124 3.45973217 42.33745318 3.4699035 44.40860081 3.48085594 C49.98603927 3.50796461 55.56345275 3.52324809 61.14093947 3.53628397 C66.98655679 3.55199896 72.83212371 3.57876215 78.67770481 3.6043148 C89.72696798 3.65095527 100.77624078 3.68777035 111.82555157 3.72098768 C124.41335751 3.75931362 137.00111265 3.8086961 149.58887565 3.85897183 C175.46418637 3.96207238 201.33952977 4.05140342 227.214921 4.131567 C227.214921 4.461567 227.214921 4.791567 227.214921 5.131567 C199.70223907 5.17836205 172.18956313 5.21359257 144.67684937 5.23519135 C131.90119627 5.24548818 119.12556795 5.25951799 106.34993076 5.28244591 C95.21004296 5.30242862 84.0701731 5.31529501 72.93026787 5.31974399 C67.03602376 5.32234311 61.14183101 5.32841884 55.24760342 5.34302711 C49.69006454 5.35668823 44.13259775 5.36077252 38.57504368 5.35778236 C36.54468041 5.35832873 34.51431452 5.36225501 32.48396587 5.36997795 C1.2114871 5.48301014 1.2114871 5.48301014 -4.785079 0.131567 C-1.785079 -0.868433 -1.785079 -0.868433 0 0 Z " fill="#397F5C" transform="translate(132.78507900238037,464.8684329986572)"/>
<path d="M0 0 C0.33 0 0.66 0 1 0 C1.02335596 27.78123802 1.04099245 55.56247457 1.05181217 83.34372044 C1.05696939 96.24290355 1.06400117 109.14208057 1.07543945 122.04125977 C1.08540381 133.28361593 1.09185761 144.52596767 1.09408849 155.76832813 C1.09539261 161.72154502 1.09845967 167.67474927 1.10573006 173.62796211 C1.11251786 179.23142522 1.11461132 184.83487049 1.11310768 190.43833733 C1.11338276 192.49463371 1.11537151 194.55093069 1.11920547 196.60722351 C1.1241858 199.41615449 1.12298224 202.22501824 1.12025452 205.03395081 C1.12316736 205.84622385 1.1260802 206.6584969 1.12908131 207.49538428 C1.11700773 212.10023564 0.76114419 216.4567545 0 221 C-0.33 221 -0.66 221 -1 221 C-1.06058594 220.01257813 -1.12117188 219.02515625 -1.18359375 218.0078125 C-1.26738281 216.72648438 -1.35117187 215.44515625 -1.4375 214.125 C-1.51871094 212.84882813 -1.59992188 211.57265625 -1.68359375 210.2578125 C-1.79206027 207.11699848 -1.79206027 207.11699848 -3 205 C-2.34 204.67 -1.68 204.34 -1 204 C-0.505 103.02 -0.505 103.02 0 0 Z " fill="#34644F" transform="translate(439,188)"/>
<path d="M0 0 C0.33 0 0.66 0 1 0 C1.11632513 3.41637953 1.18728897 6.83224897 1.25 10.25 C1.28351563 11.21808594 1.31703125 12.18617188 1.3515625 13.18359375 C1.36445313 14.11816406 1.37734375 15.05273438 1.390625 16.015625 C1.41157227 16.87446289 1.43251953 17.73330078 1.45410156 18.61816406 C0.82904995 21.89666059 -0.40869002 22.93231133 -3 25 C-5.83479691 25.49219131 -5.83479691 25.49219131 -9.17559814 25.48101807 C-10.44321991 25.48651672 -11.71084167 25.49201538 -13.01687622 25.49768066 C-14.41913221 25.48352496 -15.82138437 25.46898573 -17.22363281 25.45410156 C-18.70203623 25.45297312 -20.18044188 25.45360688 -21.65884399 25.45587158 C-25.67107216 25.45701981 -29.68282254 25.43349327 -33.69493961 25.40557575 C-37.88829696 25.38058005 -42.0816651 25.37822155 -46.27508545 25.37347412 C-54.21531781 25.36103893 -62.15533003 25.32821005 -70.09546542 25.28807616 C-79.13525835 25.24337529 -88.17506176 25.22137566 -97.21493769 25.20129442 C-115.8100833 25.15947784 -134.40502395 25.0891153 -153 25 C-153 24.67 -153 24.34 -153 24 C-152.27646615 23.99668985 -151.5529323 23.99337971 -150.80747318 23.98996925 C-133.17918142 23.90864832 -115.55097899 23.81652623 -97.92280674 23.71247292 C-89.39785609 23.66241174 -80.87291475 23.61596821 -72.34790039 23.578125 C-64.91504063 23.54512068 -57.48225447 23.50524317 -50.04947609 23.45720994 C-46.11611802 23.43202864 -42.18280825 23.41022294 -38.24939156 23.39665604 C-34.54183291 23.38375934 -30.83444061 23.36162419 -27.12697411 23.33261681 C-25.12844435 23.31932363 -23.12985781 23.3156343 -21.13128662 23.31230164 C-14.44031375 23.25042648 -8.46601526 22.7498985 -2 21 C-1.97224487 20.34004028 -1.94448975 19.68008057 -1.91589355 19.00012207 C-1.80338937 16.35399604 -1.6828444 13.70828065 -1.5625 11.0625 C-1.52318359 10.11697266 -1.48386719 9.17144531 -1.44335938 8.19726562 C-1.40146484 7.29814453 -1.35957031 6.39902344 -1.31640625 5.47265625 C-1.26141968 4.22367554 -1.26141968 4.22367554 -1.20532227 2.94946289 C-1 1 -1 1 0 0 Z " fill="#E0FCEE" transform="translate(339,298)"/>
<path d="M0 0 C0.99 0.33 1.98 0.66 3 1 C3.08724706 4.4165052 3.14047325 7.83272313 3.1875 11.25 C3.21263672 12.21808594 3.23777344 13.18617188 3.26367188 14.18359375 C3.27817383 15.58544922 3.27817383 15.58544922 3.29296875 17.015625 C3.31653442 18.30388184 3.31653442 18.30388184 3.34057617 19.61816406 C2.90821661 22.64189161 2.14674257 23.82826004 0 26 C-2.72736645 26.49219131 -2.72736645 26.49219131 -6.0933075 26.48101807 C-7.36796875 26.48651672 -8.64263 26.49201538 -9.95591736 26.49768066 C-11.37125008 26.48352401 -12.78657902 26.46898477 -14.2019043 26.45410156 C-15.6900123 26.45297346 -17.17812254 26.45360622 -18.66622925 26.45587158 C-22.70950541 26.45702112 -26.75230869 26.43347351 -30.79547477 26.40557575 C-35.0195348 26.38060174 -39.24360519 26.37822327 -43.46772766 26.37347412 C-51.46819953 26.36103254 -59.46845325 26.32819503 -67.46882898 26.28807616 C-76.57631235 26.24339515 -85.68380604 26.22138067 -94.7913717 26.20129442 C-113.5277049 26.15946336 -132.26383492 26.08908843 -151 26 C-151 25.67 -151 25.34 -151 25 C-150.27554436 24.99576806 -149.55108871 24.99153612 -148.80467987 24.98717594 C-131.16008195 24.88377732 -113.51552417 24.77512597 -95.87099457 24.66066074 C-87.33816362 24.60543185 -78.80532848 24.55196712 -70.27246094 24.50268555 C-62.83341141 24.45971681 -55.39439138 24.41340739 -47.95538759 24.36312145 C-44.01815518 24.33662241 -40.08092823 24.31177251 -36.1436615 24.29092598 C-32.43369454 24.27123007 -28.72378319 24.24704915 -25.01386642 24.21950912 C-23.01155235 24.20578952 -21.00920788 24.19675293 -19.00686646 24.18788147 C-8.25012536 24.83755484 -8.25012536 24.83755484 1 21 C1.17315986 18.3556435 1.23218566 15.82865784 1.1875 13.1875 C1.18685547 12.47529297 1.18621094 11.76308594 1.18554688 11.02929688 C1.15395907 7.23525021 0.90568676 3.68795651 0 0 Z " fill="#DFFCF0" transform="translate(337,242)"/>
<path d="M0 0 C-1.56641751 4.30764815 -3.68336156 8.06171464 -6 12 C-6.66 12 -7.32 12 -8 12 C-8.27070313 12.58652344 -8.54140625 13.17304688 -8.8203125 13.77734375 C-11.35829838 18.55917808 -15.35396184 23.17919112 -20 26 C-20.66 26 -21.32 26 -22 26 C-22 26.66 -22 27.32 -22 28 C-29.41208682 33.42217522 -37.96609864 37.29359641 -47 39 C-49.375 38.59375 -49.375 38.59375 -51 38 C-50.34 37.34 -49.68 36.68 -49 36 C-48.01 36 -47.02 36 -46 36 C-46 35.34 -46 34.68 -46 34 C-41.05 33.505 -41.05 33.505 -36 33 C-36 32.34 -36 31.68 -36 31 C-35.01 31 -34.02 31 -33 31 C-33 30.01 -33 29.02 -33 28 C-30.03 27.01 -27.06 26.02 -24 25 C-24 24.34 -24 23.68 -24 23 C-19.61538462 20 -19.61538462 20 -17 20 C-17 19.34 -17 18.68 -17 18 C-12.69767442 13.23255814 -12.69767442 13.23255814 -9 12 C-9 11.34 -9 10.68 -9 10 C-8.34 10 -7.68 10 -7 10 C-7 8.68 -7 7.36 -7 6 C-6.01 6 -5.02 6 -4 6 C-4 4.35 -4 2.7 -4 1 C-2 0 -2 0 0 0 Z " fill="#347257" transform="translate(432,430)"/>
<path d="M0 0 C0.81547302 0.00800125 1.63094604 0.0160025 2.47113037 0.02424622 C5.15491469 0.05202207 7.8385309 0.08755277 10.5222168 0.12353516 C12.39779781 0.14532756 14.27338286 0.16677608 16.14897156 0.18789673 C20.07706664 0.2333285 24.0050912 0.28253185 27.93310547 0.33447266 C32.94959182 0.40056187 37.96613148 0.45792052 42.98275471 0.51250267 C46.85628024 0.55551837 50.72974304 0.60289991 54.60320091 0.65159988 C56.45181965 0.67438347 58.30045441 0.69590529 60.14910316 0.71610641 C62.7427087 0.7451672 65.33617528 0.78004756 67.9296875 0.81640625 C68.68271652 0.82373276 69.43574554 0.83105927 70.21159363 0.83860779 C75.41590265 0.91993309 80.49229693 1.40238642 85.65893555 2.03759766 C85.65893555 2.36759766 85.65893555 2.69759766 85.65893555 3.03759766 C52.32893555 3.03759766 18.99893555 3.03759766 -15.34106445 3.03759766 C-15.01106445 2.37759766 -14.68106445 1.71759766 -14.34106445 1.03759766 C-9.58913525 -0.12673756 -4.860129 -0.07282795 0 0 Z " fill="#367A57" transform="translate(198.341064453125,344.96240234375)"/>
<path d="M0 0 C0.99 0.33 1.98 0.66 3 1 C4.16796875 3.36328125 4.16796875 3.36328125 5.1875 6.3125 C5.53167969 7.27800781 5.87585938 8.24351562 6.23046875 9.23828125 C7 12 7 12 7 16 C7.66 16 8.32 16 9 16 C11.75995354 18.8489843 13.31721614 21.55899582 14.625 25.25 C15.53288544 29.0521932 15.53288544 29.0521932 18 30 C18 30.66 18 31.32 18 32 C18.57234375 32.10441406 19.1446875 32.20882812 19.734375 32.31640625 C22.36985768 33.11159499 24.06031308 34.27901491 26.25 35.9375 C26.95640625 36.46214844 27.6628125 36.98679687 28.390625 37.52734375 C28.92171875 38.01332031 29.4528125 38.49929688 30 39 C30 39.66 30 40.32 30 41 C30.763125 40.938125 31.52625 40.87625 32.3125 40.8125 C35 41 35 41 36.6875 42.4375 C37.120625 42.953125 37.55375 43.46875 38 44 C38.99 44.495 38.99 44.495 40 45 C40 45.66 40 46.32 40 47 C41.65 47 43.3 47 45 47 C45.33 47.99 45.66 48.98 46 50 C48.01508358 50.73323796 48.01508358 50.73323796 50 51 C46.07492635 52.30835788 44.7965139 51.32603515 41.0625 49.6875 C40.02222656 49.23761719 38.98195312 48.78773438 37.91015625 48.32421875 C35.57775903 47.26289974 33.2792738 46.16984414 31 45 C31 44.34 31 43.68 31 43 C30.319375 42.79375 29.63875 42.5875 28.9375 42.375 C25.08360625 40.57104973 21.92212236 38.0989655 19 35 C19 34.34 19 33.68 19 33 C18.34 33 17.68 33 17 33 C17 32.34 17 31.68 17 31 C16.01 30.67 15.02 30.34 14 30 C12.41719514 27.92219811 11.00824275 25.89221542 9.625 23.6875 C9.22869385 23.06246582 8.8323877 22.43743164 8.42407227 21.79345703 C4.30095885 15.12597193 0 7.98216983 0 0 Z " fill="#33664D" transform="translate(82,416)"/>
<path d="M0 0 C0.99 0.33 1.98 0.66 3 1 C3.08724706 4.4165052 3.14047325 7.83272313 3.1875 11.25 C3.21263672 12.21808594 3.23777344 13.18617188 3.26367188 14.18359375 C3.27333984 15.11816406 3.28300781 16.05273438 3.29296875 17.015625 C3.3086792 17.87446289 3.32438965 18.73330078 3.34057617 19.61816406 C2.91421004 22.59997624 2.06447684 23.82148242 0 26 C-2.22099304 26.48101807 -2.22099304 26.48101807 -4.83862305 26.45410156 C-5.8194133 26.45379944 -6.80020355 26.45349731 -7.81071472 26.45318604 C-8.86704605 26.43254089 -9.92337738 26.41189575 -11.01171875 26.390625 C-12.09508011 26.38496521 -13.17844147 26.37930542 -14.29463196 26.37347412 C-17.7593683 26.35105966 -21.22307553 26.30085218 -24.6875 26.25 C-27.03449029 26.22994164 -29.38149676 26.21168972 -31.72851562 26.1953125 C-37.486029 26.15117831 -43.24294099 26.08421541 -49 26 C-49 25.67 -49 25.34 -49 25 C-47.83017578 24.97494385 -46.66035156 24.9498877 -45.45507812 24.92407227 C-41.08649018 24.82941271 -36.71803972 24.72933847 -32.34960938 24.62768555 C-30.46422558 24.58455691 -28.57880826 24.54286778 -26.69335938 24.50268555 C-23.97255376 24.4444442 -21.25191352 24.38090932 -18.53125 24.31640625 C-17.69758911 24.29969376 -16.86392822 24.28298126 -16.00500488 24.26576233 C-6.77776861 24.55517645 -6.77776861 24.55517645 1 21 C1.17315986 18.3556435 1.23218566 15.82865784 1.1875 13.1875 C1.18685547 12.47529297 1.18621094 11.76308594 1.18554688 11.02929688 C1.15395907 7.23525021 0.90568676 3.68795651 0 0 Z " fill="#DDFAED" transform="translate(337,242)"/>
<path d="M0 0 C0.99 0.33 1.98 0.66 3 1 C2.34878174 1.391875 1.69756348 1.78375 1.02661133 2.1875 C-1.20290802 3.81811557 -1.20290802 3.81811557 -1.4699707 6.3125 C-1.44809692 7.6428125 -1.44809692 7.6428125 -1.42578125 9 C-1.41740234 9.969375 -1.40902344 10.93875 -1.40039062 11.9375 C-1.37138672 12.948125 -1.34238281 13.95875 -1.3125 15 C-1.30283203 16.010625 -1.29316406 17.02125 -1.28320312 18.0625 C-1.23322181 23.62166228 -1.23322181 23.62166228 0 29 C0.99 29.33 1.98 29.66 3 30 C2.01 30.66 1.02 31.32 0 32 C-4.56122143 26.40882535 -5.181876 23.33560798 -5.1875 16.1875 C-5.19974609 15.37990234 -5.21199219 14.57230469 -5.22460938 13.74023438 C-5.23518935 9.43418391 -5.19940476 5.83617108 -3 2 C-2.01 1.34 -1.02 0.68 0 0 Z " fill="#4A8866" transform="translate(181,293)"/>
<path d="M0 0 C0.66 0.33 1.32 0.66 2 1 C1.36191406 1.48210937 0.72382812 1.96421875 0.06640625 2.4609375 C-0.75988281 3.09257813 -1.58617188 3.72421875 -2.4375 4.375 C-3.26121094 5.00148438 -4.08492187 5.62796875 -4.93359375 6.2734375 C-7.08528092 7.83753904 -7.08528092 7.83753904 -8 10 C-8.99 10.33 -9.98 10.66 -11 11 C-12.20882096 13.00016466 -12.20882096 13.00016466 -13 15 C-13.66 15 -14.32 15 -15 15 C-15.226875 15.7425 -15.45375 16.485 -15.6875 17.25 C-17.24928606 20.52231364 -19.12235056 21.86020939 -22 24 C-22.33 24.66 -22.66 25.32 -23 26 C-23.66 26 -24.32 26 -25 26 C-19.89419952 14.78271106 -9.91359048 6.81559346 0 0 Z " fill="#2A5A4C" transform="translate(115,120)"/>
<path d="M0 0 C1.41569064 -0.08167446 2.83276805 -0.13949698 4.25 -0.1875 C5.43335938 -0.23970703 5.43335938 -0.23970703 6.640625 -0.29296875 C9.64007826 0.07947992 10.82661745 0.91481924 13 3 C13.45410156 5.36010742 13.45410156 5.36010742 13.390625 8.10546875 C13.37773437 9.08837891 13.36484375 10.07128906 13.3515625 11.08398438 C13.31804687 12.10814453 13.28453125 13.13230469 13.25 14.1875 C13.23195313 15.22326172 13.21390625 16.25902344 13.1953125 17.32617188 C13.14814437 19.88504284 13.08234057 22.44205842 13 25 C10.58272776 22.8551695 10.04012338 22.36636466 9.671875 19.00390625 C9.69765625 17.86824219 9.7234375 16.73257812 9.75 15.5625 C9.76546875 14.42941406 9.7809375 13.29632813 9.796875 12.12890625 C9.96231663 9.5804689 10.25997979 7.42893731 11 5 C9.9275 4.505 8.855 4.01 7.75 3.5 C7.14671875 3.2215625 6.5434375 2.943125 5.921875 2.65625 C3.70757164 1.78457076 3.70757164 1.78457076 0 2 C0 1.34 0 0.68 0 0 Z " fill="#DBF3E8" transform="translate(275,349)"/>
<path d="M0 0 C0 3.51716303 -0.82445585 4.37121748 -3 7 C-3.66 6.67 -4.32 6.34 -5 6 C-2.25 1.125 -2.25 1.125 0 0 Z M-7 7 C-6.34 7 -5.68 7 -5 7 C-5.33 7.99 -5.66 8.98 -6 10 C-6.66 10 -7.32 10 -8 10 C-7.67 10.99 -7.34 11.98 -7 13 C-8.14453125 15.15625 -8.14453125 15.15625 -9.8125 17.5 C-10.35519531 18.2734375 -10.89789063 19.046875 -11.45703125 19.84375 C-12.22080078 20.91109375 -12.22080078 20.91109375 -13 22 C-13.66 22.99 -14.32 23.98 -15 25 C-15.38281159 19.76824163 -14.21854707 16.62197306 -12 12 C-11.34 12 -10.68 12 -10 12 C-9.690625 11.360625 -9.38125 10.72125 -9.0625 10.0625 C-8 8 -8 8 -7 7 Z " fill="#377D5C" transform="translate(102,134)"/>
<path d="M0 0 C10.76467416 -0.60551292 19.7345714 1.0136935 30 4 C29.67 4.66 29.34 5.32 29 6 C27.845 5.835 26.69 5.67 25.5 5.5 C22.53099418 5.11044959 19.73947934 5.00137491 16.75 5.125 C12.56102881 4.98536763 12.15011737 4.38645255 9 2 C6.01415562 1.43722305 3.030529 1.18778919 0 1 C0 0.67 0 0.34 0 0 Z " fill="#33644E" transform="translate(363,111)"/>
<path d="M0 0 C0.33 0 0.66 0 1 0 C1.11632513 3.41637953 1.18728897 6.83224897 1.25 10.25 C1.30027344 11.70212891 1.30027344 11.70212891 1.3515625 13.18359375 C1.44984624 20.30916471 1.44984624 20.30916471 -0.75 23.6875 C-4.48008454 25.86338265 -6.86422911 24.82715418 -11 24 C-11 23.67 -11 23.34 -11 23 C-8.03 22.34 -5.06 21.68 -2 21 C-1.93941406 19.56785156 -1.87882812 18.13570313 -1.81640625 16.66015625 C-1.73201896 14.79425959 -1.64737007 12.92837476 -1.5625 11.0625 C-1.52318359 10.11697266 -1.48386719 9.17144531 -1.44335938 8.19726562 C-1.40146484 7.29814453 -1.35957031 6.39902344 -1.31640625 5.47265625 C-1.27974854 4.64000244 -1.24309082 3.80734863 -1.20532227 2.94946289 C-1 1 -1 1 0 0 Z " fill="#DAF4E8" transform="translate(339,298)"/>
<path d="M0 0 C0.66 0 1.32 0 2 0 C2.25 5.625 2.25 5.625 0 9 C-0.27975977 11.64232942 -0.27975977 11.64232942 -0.1875 14.5 C-0.18105469 15.4590625 -0.17460937 16.418125 -0.16796875 17.40625 C-0.10292931 20.11497767 -0.10292931 20.11497767 1 23 C0.34 23.66 -0.32 24.32 -1 25 C-3.41816166 22.58183834 -2.18547019 16.31222181 -2.1875 13.0625 C-2.19974609 12.03447266 -2.21199219 11.00644531 -2.22460938 9.94726562 C-2.22654297 8.96564453 -2.22847656 7.98402344 -2.23046875 6.97265625 C-2.23457764 6.06781494 -2.23868652 5.16297363 -2.24291992 4.23071289 C-2 2 -2 2 0 0 Z " fill="#D8F3E4" transform="translate(181,295)"/>
<path d="M0 0 C0.99 0.33 1.98 0.66 3 1 C2.48378772 7.83981276 0.51409031 13.63876684 -2 20 C-4 17 -4 17 -3.85986328 15.09887695 C-3.68181152 14.40238037 -3.50375977 13.70588379 -3.3203125 12.98828125 C-3.13339844 12.23095703 -2.94648438 11.47363281 -2.75390625 10.69335938 C-2.54636719 9.90767578 -2.33882813 9.12199219 -2.125 8.3125 C-1.92519531 7.51521484 -1.72539062 6.71792969 -1.51953125 5.89648438 C-1.02448137 3.92807177 -0.51372578 1.96362125 0 0 Z " fill="#377455" transform="translate(435,410)"/>
<path d="M0 0 C5.00067137 0.3748218 7.51273903 2.97032792 10.8125 6.4375 C11.31458984 6.94087891 11.81667969 7.44425781 12.33398438 7.96289062 C16 11.71868622 16 11.71868622 16 14 C12.42594199 13.40566226 10.49886665 12.01400148 7.8125 9.625 C7.11769531 9.01914063 6.42289062 8.41328125 5.70703125 7.7890625 C4 6 4 6 3 3 C2.01 2.67 1.02 2.34 0 2 C0 1.34 0 0.68 0 0 Z " fill="#3B735C" transform="translate(408,126)"/>
<path d="M0 0 C2.28240525 3.42360788 2.33763381 5.07740857 2.5625 9.125 C2.89614241 14.44540491 3.37200764 19.70692152 4 25 C3.34 25 2.68 25 2 25 C-0.20192224 21.69711664 -0.23959968 20.72537273 -0.1953125 16.89453125 C-0.18886719 15.91162109 -0.18242187 14.92871094 -0.17578125 13.91601562 C-0.15902344 12.89185547 -0.14226562 11.86769531 -0.125 10.8125 C-0.11597656 9.77673828 -0.10695312 8.74097656 -0.09765625 7.67382812 C-0.0740786 5.11565315 -0.0411703 2.55794252 0 0 Z " fill="#DAF3E6" transform="translate(179,352)"/>
<path d="M0 0 C6.13851917 5.6269759 9.54074539 12.10449836 12 20 C11.57421875 22.23828125 11.57421875 22.23828125 11 24 C10.34 23.34 9.68 22.68 9 22 C8.67 22 8.34 22 8 22 C7.87882812 21.43152344 7.75765625 20.86304688 7.6328125 20.27734375 C6.58677946 15.45754536 5.40795516 10.7267066 4 6 C3.01 6 2.02 6 1 6 C0.67 4.02 0.34 2.04 0 0 Z " fill="#366550" transform="translate(424,140)"/>
<path d="M0 0 C1.95720377 2.93580566 2.30195175 3.89822836 2.6328125 7.23046875 C2.71660156 8.03291016 2.80039062 8.83535156 2.88671875 9.66210938 C2.96535156 10.49548828 3.04398437 11.32886719 3.125 12.1875 C3.21136719 13.03248047 3.29773438 13.87746094 3.38671875 14.74804688 C3.5985739 16.83128923 3.80026777 18.91556042 4 21 C3.34 21 2.68 21 2 21 C1.67 21.99 1.34 22.98 1 24 C0.09958689 15.97667603 -0.11547323 8.07029553 0 0 Z " fill="#376B53" transform="translate(436,165)"/>
<path d="M0 0 C0.33 0.99 0.66 1.98 1 3 C1.66 3 2.32 3 3 3 C2.67 8.61 2.34 14.22 2 20 C1.01 20.33 0.02 20.66 -1 21 C-1.02888146 17.68751813 -1.04675799 14.37506833 -1.0625 11.0625 C-1.07087891 10.11697266 -1.07925781 9.17144531 -1.08789062 8.19726562 C-1.09111328 7.29814453 -1.09433594 6.39902344 -1.09765625 5.47265625 C-1.10289307 4.64000244 -1.10812988 3.80734863 -1.11352539 2.94946289 C-1 1 -1 1 0 0 Z " fill="#529471" transform="translate(341,242)"/>
<path d="M0 0 C1.65 0 3.3 0 5 0 C5.5 2 5.5 2 6 4 C6.17909912 4.61713867 6.35819824 5.23427734 6.54272461 5.87011719 C7.03113583 8.1450235 7.02791681 10.01018301 6.87890625 12.328125 C6.83056641 13.12734375 6.78222656 13.9265625 6.73242188 14.75 C6.67634766 15.575 6.62027344 16.4 6.5625 17.25 C6.51029297 18.09046875 6.45808594 18.9309375 6.40429688 19.796875 C6.27504311 21.8649352 6.13825726 23.9325222 6 26 C5.67 26 5.34 26 5 26 C4.9906543 25.41508789 4.98130859 24.83017578 4.97167969 24.22753906 C4.91786721 21.5675142 4.83424551 18.90922778 4.75 16.25 C4.73582031 15.32960938 4.72164063 14.40921875 4.70703125 13.4609375 C4.61105073 8.03844989 4.61105073 8.03844989 1.953125 3.484375 C1.30859375 2.99453125 0.6640625 2.5046875 0 2 C0 1.34 0 0.68 0 0 Z " fill="#569675" transform="translate(283,346)"/>
<path d="M0 0 C0.33 0 0.66 0 1 0 C1.02505615 0.59014893 1.0501123 1.18029785 1.07592773 1.78833008 C1.19200052 4.46326814 1.31467572 7.1378638 1.4375 9.8125 C1.47681641 10.74126953 1.51613281 11.67003906 1.55664062 12.62695312 C1.59853516 13.51962891 1.64042969 14.41230469 1.68359375 15.33203125 C1.72025146 16.15421143 1.75690918 16.9763916 1.79467773 17.82348633 C1.93427772 20.17905178 1.93427772 20.17905178 3 23 C3.66 23.33 4.32 23.66 5 24 C4.01 24.33 3.02 24.66 2 25 C-0.47442129 22.84832931 -1.56238367 21.28212246 -2 18 C-1.67 17.67 -1.34 17.34 -1 17 C-0.76298761 14.14122091 -0.57780818 11.30116703 -0.4375 8.4375 C-0.39431641 7.63119141 -0.35113281 6.82488281 -0.30664062 5.99414062 C-0.20024738 3.99631195 -0.09959112 1.9981793 0 0 Z " fill="#5A9576" transform="translate(178,354)"/>
<path d="M0 0 C1 3 1 3 0.125 4.89453125 C-0.431875 5.93673828 -0.431875 5.93673828 -1 7 C-1.56820565 9.34779417 -2.00204434 11.69865261 -2.4375 14.07421875 C-2.623125 14.70972656 -2.80875 15.34523437 -3 16 C-3.66 16.33 -4.32 16.66 -5 17 C-6.13350534 19.01669827 -6.13350534 19.01669827 -7 21 C-6.69196223 13.14503688 -3.46909516 6.95940803 0 0 Z " fill="#2F5D49" transform="translate(89,146)"/>
<path d="M0 0 C0.99 0.33 1.98 0.66 3 1 C3.11632513 4.41637953 3.18728897 7.83224897 3.25 11.25 C3.28351563 12.21808594 3.31703125 13.18617188 3.3515625 14.18359375 C3.45112665 21.4019949 3.45112665 21.4019949 0.984375 24.671875 C0.00210937 25.32929688 0.00210937 25.32929688 -1 26 C-0.125 22.125 -0.125 22.125 1 21 C1.10068807 18.40580146 1.1387005 15.84396198 1.125 13.25 C1.12886719 12.53328125 1.13273437 11.8165625 1.13671875 11.078125 C1.12969993 7.259888 0.92035258 3.71062786 0 0 Z " fill="#DAF8E9" transform="translate(337,242)"/>
<path d="M0 0 C-0.33 0.66 -0.66 1.32 -1 2 C-7.27 2 -13.54 2 -20 2 C-20 1.67 -20 1.34 -20 1 C-19.08476562 0.93941406 -18.16953125 0.87882812 -17.2265625 0.81640625 C-15.44378906 0.69072266 -15.44378906 0.69072266 -13.625 0.5625 C-12.44164062 0.48128906 -11.25828125 0.40007812 -10.0390625 0.31640625 C-2.1375 -0.50625 -2.1375 -0.50625 0 0 Z " fill="#37805C" transform="translate(382,467)"/>
<path d="M0 0 C0.66 0.99 1.32 1.98 2 3 C1.38516854 4.68647695 0.7091166 6.35094698 0 8 C-0.27876518 10.0959986 -0.48588744 12.20262611 -0.625 14.3125 C-0.69976562 15.38113281 -0.77453125 16.44976562 -0.8515625 17.55078125 C-0.90054688 18.35902344 -0.94953125 19.16726563 -1 20 C-1.33 20 -1.66 20 -2 20 C-2 13.73 -2 7.46 -2 1 C-1.34 0.67 -0.68 0.34 0 0 Z " fill="#E0F9EC" transform="translate(181,242)"/>
<path d="M0 0 C-0.33 0.99 -0.66 1.98 -1 3 C-2.32796291 3.35412344 -3.66216607 3.68521554 -5 4 C-5.433125 4.433125 -5.86625 4.86625 -6.3125 5.3125 C-8.85414081 7.85414081 -11.85213433 9.27758294 -15 11 C-13.59127675 7.63512219 -12.00344528 5.94290543 -9.0625 3.8125 C-8.37285156 3.30332031 -7.68320313 2.79414062 -6.97265625 2.26953125 C-4.66218675 0.78259544 -2.77054642 0 0 0 Z " fill="#397B5B" transform="translate(122,119)"/>
<path d="M0 0 C8.19256018 -0.4726477 8.19256018 -0.4726477 11.5625 1.5 C12.036875 1.995 12.51125 2.49 13 3 C12.67 3.66 12.34 4.32 12 5 C11.0925 4.690625 10.185 4.38125 9.25 4.0625 C4.71076409 2.52182724 4.71076409 2.52182724 0 2 C0 1.34 0 0.68 0 0 Z " fill="#D3EEE2" transform="translate(275,349)"/>
<path d="M0 0 C0.33 0.66 0.66 1.32 1 2 C0.236875 2.7425 -0.52625 3.485 -1.3125 4.25 C-3.95571199 6.823554 -3.95571199 6.823554 -5.6875 9.3125 C-6.3371875 10.1478125 -6.3371875 10.1478125 -7 11 C-7.66 11 -8.32 11 -9 11 C-7.2034488 6.75360625 -4.18376817 2.09188408 0 0 Z " fill="#396350" transform="translate(99,135)"/>
<path d="M0 0 C1.97179598 2.95769397 2.36929854 4.16417962 2.75 7.5625 C2.84796875 8.34753906 2.9459375 9.13257813 3.046875 9.94140625 C3 12 3 12 1 14 C-1.61895048 9.22426677 -0.83119431 5.15565119 0 0 Z " fill="#D6EDE3" transform="translate(180,253)"/>
<path d="M0 0 C0.66 1.32 1.32 2.64 2 4 C2.66 4.33 3.32 4.66 4 5 C3.4140625 11.15234375 3.4140625 11.15234375 3 13 C2.01 13.495 2.01 13.495 1 14 C0.67 9.38 0.34 4.76 0 0 Z " fill="#367E5E" transform="translate(433,160)"/>
<path d="M0 0 C0.99 0.33 1.98 0.66 3 1 C2.48594831 5.96916636 1.76615118 10.29026351 0 15 C-1.14229879 11.57310364 -0.90861076 9.38897782 -0.5625 5.8125 C-0.46066406 4.72582031 -0.35882813 3.63914062 -0.25390625 2.51953125 C-0.17011719 1.68808594 -0.08632813 0.85664063 0 0 Z " fill="#365F4B" transform="translate(435,410)"/>
<path d="M0 0 C1.79206547 0.14084796 3.58364917 0.28783701 5.375 0.4375 C6.87160156 0.55931641 6.87160156 0.55931641 8.3984375 0.68359375 C11 1 11 1 13 2 C13 2.99 13 3.98 13 5 C8.39146203 4.27991594 4.32762591 2.68704061 0 1 C0 0.67 0 0.34 0 0 Z " fill="#36785F" transform="translate(384,115)"/>
<path d="M0 0 C-1.57725347 0.70133599 -3.16211333 1.385583 -4.75 2.0625 C-5.63171875 2.44535156 -6.5134375 2.82820313 -7.421875 3.22265625 C-10.15256309 4.04600008 -11.36901347 3.9773992 -14 3 C-13.34 3 -12.68 3 -12 3 C-12 2.34 -12 1.68 -12 1 C-10.56496445 0.63597631 -9.12683494 0.28413409 -7.6875 -0.0625 C-6.88699219 -0.25972656 -6.08648437 -0.45695312 -5.26171875 -0.66015625 C-3 -1 -3 -1 0 0 Z " fill="#2D5142" transform="translate(400,464)"/>
<path d="M0 0 C3.39417765 3.12621626 5.6062718 5.56541027 7 10 C6.01 9.34 5.02 8.68 4 8 C4 7.34 4 6.68 4 6 C3.01 6 2.02 6 1 6 C0.67 4.02 0.34 2.04 0 0 Z " fill="#2D5B47" transform="translate(424,140)"/>
<path d="M0 0 C0.66 0 1.32 0 2 0 C1.38722388 2.96175123 0.74627478 4.38058783 -1 7 C-1.66 7 -2.32 7 -3 7 C-2.25 2.25 -2.25 2.25 0 0 Z " fill="#32634D" transform="translate(420,443)"/>
<path d="M0 0 C0.6875 1.8125 0.6875 1.8125 1 4 C-0.4375 5.75 -0.4375 5.75 -2 7 C-3.32 6.34 -4.64 5.68 -6 5 C-5.01 4.34 -4.02 3.68 -3 3 C-1.98131338 2.01904252 -0.97648017 1.02297922 0 0 Z " fill="#408561" transform="translate(287,374)"/>
<path d="M0 0 C3 0 3 0 5 1 C4.67 1.99 4.34 2.98 4 4 C2.125 4.8125 2.125 4.8125 0 5 C-0.99 4.34 -1.98 3.68 -3 3 C-2.01 3 -1.02 3 0 3 C0 2.01 0 1.02 0 0 Z " fill="#CEEDDE" transform="translate(282,373)"/>
<path d="M0 0 C-5.41538462 4.06153846 -5.41538462 4.06153846 -8.375 3.75 C-8.91125 3.5025 -9.4475 3.255 -10 3 C-9.34 3 -8.68 3 -8 3 C-8 2.34 -8 1.68 -8 1 C-2.25 -1.125 -2.25 -1.125 0 0 Z " fill="#366B56" transform="translate(408,459)"/>
<path d="M0 0 C-0.33 0.99 -0.66 1.98 -1 3 C-4.41270242 4.51675663 -7.44169126 3.72783588 -11 3 C-11 2.67 -11 2.34 -11 2 C-9.5422647 1.664061 -8.08378894 1.33133376 -6.625 1 C-5.40683594 0.7215625 -5.40683594 0.7215625 -4.1640625 0.4375 C-2 0 -2 0 0 0 Z " fill="#D3EDE0" transform="translate(339,319)"/>
<path d="M0 0 C1.98 0.99 3.96 1.98 6 3 C6 3.66 6 4.32 6 5 C3.03 4.505 3.03 4.505 0 4 C0 2.68 0 1.36 0 0 Z " fill="#366955" transform="translate(400,119)"/>
<path d="M0 0 C1.9453125 -0.29296875 1.9453125 -0.29296875 4.125 -0.1875 C5.40375 -0.125625 6.6825 -0.06375 8 0 C4.73454239 1.88391785 1.71888239 2.49287967 -2 3 C-1.34 2.01 -0.68 1.02 0 0 Z " fill="#CCEFDE" transform="translate(182,349)"/>
<path d="M0 0 C0.99 0.33 1.98 0.66 3 1 C3 1.66 3 2.32 3 3 C3.99 3.33 4.98 3.66 6 4 C5.01 4.66 4.02 5.32 3 6 C1.5 4.6875 1.5 4.6875 0 3 C0 2.01 0 1.02 0 0 Z " fill="#458461" transform="translate(178,319)"/>
<path d="M0 0 C0.33 0 0.66 0 1 0 C1.49230769 7.38461538 1.49230769 7.38461538 -1 10.5 C-1.66 10.995 -2.32 11.49 -3 12 C-2.125 8.125 -2.125 8.125 -1 7 C-0.63239269 4.67182036 -0.29758419 2.3381615 0 0 Z " fill="#C8EEDC" transform="translate(339,256)"/>
</svg>
